<svg width="619" height="622" viewBox="0 0 619 622" fill="none" xmlns="http://www.w3.org/2000/svg">
<mask id="mask0_2005_326" style="mask-type:luminance" maskUnits="userSpaceOnUse" x="40" y="0" width="530" height="612">
<path d="M40.2695 0H569.826V611.633H40.2695V0Z" fill="white"/>
</mask>
<g mask="url(#mask0_2005_326)">
<mask id="mask1_2005_326" style="mask-type:luminance" maskUnits="userSpaceOnUse" x="41" y="0" width="529" height="612">
<path d="M369.994 107.305C344.388 44.4543 282.699 0.206979 210.651 0.683918C118.831 1.28084 43.3287 75.4613 41.0665 167.414C39.9939 212.733 56.5481 254.235 84.2963 285.482C106.448 310.409 117.642 343.087 116.449 376.479C116.332 380.891 116.332 385.423 116.332 389.836C119.307 510.768 222.441 611.426 343.199 611.306C468.361 611.186 569.826 509.575 569.826 384.113C569.826 292.162 515.282 213.09 436.921 177.313C406.554 163.359 382.617 138.432 369.994 107.305Z" fill="white"/>
</mask>
<g mask="url(#mask1_2005_326)">
<path d="M39.9939 611.426V0.206985H569.826V611.426H39.9939Z" fill="url(#paint0_linear_2005_326)"/>
</g>
</g>
<path d="M542.554 92.1602H472.412V74.2705C472.412 64.3717 464.433 56.3808 454.548 56.3808H156.584C146.699 56.3808 138.72 64.3717 138.72 74.2705V92.1602H68.575C58.6904 92.1602 50.7114 100.151 50.7114 110.05V485.128C50.7114 495.026 58.6904 503.017 68.575 503.017H138.72V520.904C138.72 530.803 146.699 538.794 156.584 538.794H454.548C464.433 538.794 472.412 530.803 472.412 520.904V503.017H542.554C552.438 503.017 560.417 495.026 560.417 485.128V110.05C560.417 100.151 552.438 92.1602 542.554 92.1602Z" fill="#2626BC" fill-opacity="0.1"/>
<path d="M542.554 117.204H429.539V528.061H542.554C552.439 528.061 560.418 520.07 560.418 510.171V135.094C560.418 125.195 552.439 117.204 542.554 117.204Z" fill="white"/>
<path d="M515.282 389.479H429.539V528.061H515.282C517.308 528.061 518.857 526.51 518.857 524.483V393.057C518.857 391.15 517.308 389.479 515.282 389.479Z" fill="#475569"/>
<path d="M515.282 219.65H429.539V358.232H515.282C517.308 358.232 518.857 356.681 518.857 354.653V223.228C518.857 221.201 517.308 219.65 515.282 219.65Z" fill="#475569" fill-opacity="0.79"/>
<path d="M542.554 117.204H429.539V174.689H560.418V135.094C560.418 125.195 552.439 117.204 542.554 117.204Z" fill="#184074" fill-opacity="0.63"/>
<path d="M178.019 117.204H68.575C58.6904 117.204 50.7114 125.195 50.7114 135.094V510.171C50.7114 520.07 58.6904 528.061 68.575 528.061H178.019V117.204Z" fill="white"/>
<path d="M178.019 477.494V319.948H86.3218C84.2963 319.948 82.7473 321.499 82.7473 323.526V473.915C82.7473 475.943 84.2963 477.494 86.3218 477.494H178.019Z" fill="#475569"/>
<path d="M178.019 289.061V238.97H86.3218C84.2963 238.97 82.7473 240.521 82.7473 242.549V285.482C82.7473 287.51 84.2963 289.061 86.3218 289.061H178.019Z" fill="#475569"/>
<path d="M178.019 117.204H68.575C58.6904 117.204 50.7114 125.195 50.7114 135.094V174.689H178.019V117.204Z" fill="#184074" fill-opacity="0.6"/>
<path d="M472.412 99.3143V545.951C472.412 555.85 464.433 563.84 454.548 563.84H156.584C146.699 563.84 138.72 555.85 138.72 545.951V99.3143C138.72 89.4155 146.699 81.4246 156.584 81.4246H454.548C464.433 81.4246 472.412 89.4155 472.412 99.3143Z" fill="white"/>
<path d="M138.72 174.808H472.412V335.93H138.72V174.808Z" fill="#184074" fill-opacity="0.72"/>
<path d="M472.412 174.808V300.51C458.596 306.234 443.471 309.455 427.633 309.455C362.968 309.455 310.567 256.98 310.567 192.218C310.567 186.375 311.043 180.532 311.876 174.808H472.412Z" fill="#475569" fill-opacity="0.49"/>
<path d="M472.412 138.909V99.3143C472.412 89.4155 464.433 81.4246 454.548 81.4246H156.584C146.699 81.4246 138.72 89.4155 138.72 99.3143V138.909H472.412Z" fill="#184074" fill-opacity="0.57"/>
<path d="M542.554 111.241H478.365V99.3142C478.365 86.1969 467.648 75.4613 454.548 75.4613H156.584C143.484 75.4613 132.766 86.1969 132.766 99.3142V111.241H68.575C55.4754 111.241 44.7578 121.973 44.7578 135.094V510.171C44.7578 523.292 55.4754 534.024 68.575 534.024H105.971C109.306 534.024 111.925 531.4 111.925 528.061C111.925 524.723 109.306 522.098 105.971 522.098H68.575C62.0252 522.098 56.6679 516.732 56.6679 510.171V180.652H132.766V545.951C132.766 559.068 143.484 569.804 156.584 569.804H454.548C467.648 569.804 478.365 559.068 478.365 545.951V534.024H542.554C555.653 534.024 566.374 523.292 566.374 510.171V135.094C566.374 121.973 555.653 111.241 542.554 111.241ZM542.554 123.167C549.104 123.167 554.464 128.533 554.464 135.094V168.725H478.365V123.167H542.554ZM156.584 87.3877H454.548C461.098 87.3877 466.455 92.754 466.455 99.3142V132.946H144.674V99.3142C144.674 92.754 150.034 87.3877 156.584 87.3877ZM56.6679 168.725V135.094C56.6679 128.533 62.0252 123.167 68.575 123.167H132.766V168.725H56.6679ZM542.554 522.098H478.365V207.603C478.365 204.265 475.743 201.64 472.412 201.64C469.077 201.64 466.455 204.265 466.455 207.603V546.071C466.455 552.628 461.098 557.997 454.548 557.997H156.584C150.034 557.997 144.674 552.628 144.674 546.071V144.872H466.455V174.689C466.455 178.027 469.077 180.652 472.412 180.652H554.464V510.171C554.464 516.732 549.104 522.098 542.554 522.098Z" fill="#184074"/>
<path d="M96.0865 139.983C92.7517 139.983 90.13 142.608 90.13 145.946V146.066C90.13 149.405 92.7517 152.029 96.0865 152.029C99.4214 152.029 102.04 149.405 102.04 146.066V145.946C102.04 142.608 99.4214 139.983 96.0865 139.983Z" fill="#2626BC"/>
<path d="M119.071 139.983C115.736 139.983 113.117 142.608 113.117 145.946V146.066C113.117 149.405 115.736 152.029 119.071 152.029C122.405 152.029 125.024 149.405 125.024 146.066V145.946C125.024 142.608 122.405 139.983 119.071 139.983Z" fill="#2626BC"/>
<path d="M184.092 116.25C187.427 116.25 190.049 113.625 190.049 110.287V110.167C190.049 106.828 187.427 104.204 184.092 104.204C180.76 104.204 178.139 106.828 178.139 110.167V110.287C178.139 113.508 180.76 116.25 184.092 116.25Z" fill="#2626BC"/>
<path d="M207.076 116.25C210.411 116.25 213.033 113.625 213.033 110.287V110.167C213.033 106.828 210.411 104.204 207.076 104.204C203.745 104.204 201.123 106.828 201.123 110.167V110.287C201.123 113.508 203.861 116.25 207.076 116.25Z" fill="#2626BC"/>
<path d="M230.18 116.25C233.515 116.25 236.137 113.625 236.137 110.287V110.167C236.137 106.828 233.515 104.204 230.18 104.204C226.846 104.204 224.227 106.828 224.227 110.167V110.287C224.227 113.508 226.846 116.25 230.18 116.25Z" fill="#2626BC"/>
<path d="M431.801 237.3C429.419 234.915 425.727 234.915 423.345 237.3C420.963 239.687 420.963 243.383 423.345 245.767L426.084 248.512L423.345 251.254C420.963 253.638 420.963 257.337 423.345 259.722C424.538 260.915 426.084 261.512 427.513 261.512C428.942 261.512 430.611 260.915 431.681 259.722L438.59 252.805C440.972 250.42 440.972 246.721 438.59 244.337L431.801 237.3Z" fill="#184074"/>
<path d="M187.787 237.3C185.405 234.915 181.71 234.915 179.331 237.3L172.422 244.217C170.04 246.604 170.04 250.3 172.422 252.685L179.331 259.602C180.521 260.795 182.07 261.392 183.499 261.392C185.045 261.392 186.594 260.795 187.667 259.602C190.049 257.217 190.049 253.521 187.667 251.134L184.928 248.392L187.667 245.65C190.049 243.383 190.049 239.687 187.787 237.3Z" fill="#184074"/>
<path d="M292.107 314.105C292.107 314.543 292.065 314.978 291.981 315.409C291.894 315.838 291.768 316.255 291.6 316.66C291.433 317.065 291.229 317.452 290.983 317.815C290.741 318.181 290.465 318.517 290.156 318.829C289.845 319.138 289.509 319.414 289.144 319.66C288.781 319.903 288.394 320.107 287.99 320.275C287.585 320.443 287.169 320.569 286.741 320.656C286.312 320.74 285.878 320.785 285.44 320.785C285.003 320.785 284.568 320.74 284.137 320.656C283.708 320.569 283.292 320.443 282.887 320.275C282.483 320.107 282.099 319.903 281.734 319.66C281.371 319.414 281.033 319.138 280.724 318.829C280.412 318.517 280.137 318.181 279.894 317.815C279.651 317.452 279.445 317.065 279.277 316.66C279.109 316.255 278.983 315.838 278.899 315.409C278.812 314.978 278.771 314.543 278.771 314.105C278.771 313.667 278.812 313.232 278.899 312.803C278.983 312.371 279.109 311.954 279.277 311.549C279.445 311.144 279.651 310.76 279.894 310.394C280.137 310.031 280.412 309.692 280.724 309.383C281.033 309.071 281.371 308.795 281.734 308.552C282.099 308.309 282.483 308.102 282.887 307.934C283.292 307.766 283.708 307.64 284.137 307.556C284.568 307.469 285.003 307.427 285.44 307.427C285.878 307.427 286.312 307.469 286.741 307.556C287.169 307.64 287.585 307.766 287.99 307.934C288.394 308.102 288.781 308.309 289.144 308.552C289.509 308.795 289.845 309.071 290.156 309.383C290.465 309.692 290.741 310.031 290.983 310.394C291.229 310.76 291.433 311.144 291.6 311.549C291.768 311.954 291.894 312.371 291.981 312.803C292.065 313.232 292.107 313.667 292.107 314.105Z" fill="#184074"/>
<path d="M312.236 314.105C312.236 314.543 312.191 314.978 312.107 315.409C312.02 315.838 311.894 316.255 311.726 316.66C311.558 317.065 311.355 317.452 311.109 317.815C310.866 318.181 310.591 318.517 310.282 318.829C309.97 319.138 309.635 319.414 309.269 319.66C308.907 319.903 308.523 320.107 308.119 320.275C307.714 320.443 307.295 320.569 306.866 320.656C306.438 320.74 306.003 320.785 305.566 320.785C305.128 320.785 304.694 320.74 304.266 320.656C303.834 320.569 303.418 320.443 303.013 320.275C302.609 320.107 302.225 319.903 301.86 319.66C301.497 319.414 301.158 319.138 300.85 318.829C300.541 318.517 300.263 318.181 300.02 317.815C299.777 317.452 299.57 317.065 299.403 316.66C299.235 316.255 299.109 315.838 299.025 315.409C298.938 314.978 298.896 314.543 298.896 314.105C298.896 313.667 298.938 313.232 299.025 312.803C299.109 312.371 299.235 311.954 299.403 311.549C299.57 311.144 299.777 310.76 300.02 310.394C300.263 310.031 300.541 309.692 300.85 309.383C301.158 309.071 301.497 308.795 301.86 308.552C302.225 308.309 302.609 308.102 303.013 307.934C303.418 307.766 303.834 307.64 304.266 307.556C304.694 307.469 305.128 307.427 305.566 307.427C306.003 307.427 306.438 307.469 306.866 307.556C307.295 307.64 307.714 307.766 308.119 307.934C308.523 308.102 308.907 308.309 309.269 308.552C309.635 308.795 309.97 309.071 310.282 309.383C310.591 309.692 310.866 310.031 311.109 310.394C311.355 310.76 311.558 311.144 311.726 311.549C311.894 311.954 312.02 312.371 312.107 312.803C312.191 313.232 312.236 313.667 312.236 314.105Z" fill="#184074"/>
<path d="M332.361 314.105C332.361 314.543 332.319 314.978 332.232 315.409C332.146 315.838 332.02 316.255 331.852 316.66C331.684 317.065 331.48 317.452 331.238 317.815C330.992 318.181 330.716 318.517 330.408 318.829C330.096 319.138 329.761 319.414 329.398 319.66C329.032 319.903 328.649 320.107 328.244 320.275C327.84 320.443 327.423 320.569 326.992 320.656C326.564 320.74 326.129 320.785 325.692 320.785C325.254 320.785 324.82 320.74 324.391 320.656C323.96 320.569 323.543 320.443 323.139 320.275C322.734 320.107 322.351 319.903 321.985 319.66C321.623 319.414 321.284 319.138 320.976 318.829C320.667 318.517 320.388 318.181 320.146 317.815C319.903 317.452 319.699 317.065 319.531 316.66C319.364 316.255 319.235 315.838 319.151 315.409C319.064 314.978 319.022 314.543 319.022 314.105C319.022 313.667 319.064 313.232 319.151 312.803C319.235 312.371 319.364 311.954 319.531 311.549C319.699 311.144 319.903 310.76 320.146 310.394C320.388 310.031 320.667 309.692 320.976 309.383C321.284 309.071 321.623 308.795 321.985 308.552C322.351 308.309 322.734 308.102 323.139 307.934C323.543 307.766 323.96 307.64 324.391 307.556C324.82 307.469 325.254 307.427 325.692 307.427C326.129 307.427 326.564 307.469 326.992 307.556C327.423 307.64 327.84 307.766 328.244 307.934C328.649 308.102 329.032 308.309 329.398 308.552C329.761 308.795 330.096 309.071 330.408 309.383C330.716 309.692 330.992 310.031 331.238 310.394C331.48 310.76 331.684 311.144 331.852 311.549C332.02 311.954 332.146 312.371 332.232 312.803C332.319 313.232 332.361 313.667 332.361 314.105Z" fill="#184074"/>
<path d="M238.159 428.954H163.49C161.468 428.954 159.919 427.403 159.919 425.375V372.066C159.919 370.038 161.468 368.488 163.49 368.488H238.159C240.185 368.488 241.734 370.038 241.734 372.066V425.375C241.734 427.403 240.185 428.954 238.159 428.954Z" fill="#6583FE"/>
<path d="M225.776 428.954H197.195V393.891C197.195 391.864 198.741 390.313 200.766 390.313H222.201C224.227 390.313 225.776 391.864 225.776 393.891V428.954Z" fill="#9FB0FE"/>
<path d="M221.488 459.487H180.044C176.709 459.487 174.091 456.862 174.091 453.524C174.091 450.182 176.709 447.56 180.044 447.56H221.488C224.823 447.56 227.442 450.182 227.442 453.524C227.442 456.862 224.823 459.487 221.488 459.487Z" fill="#475569"/>
<path d="M238.756 502.3H165.872C162.537 502.3 159.919 499.676 159.919 496.337C159.919 492.999 162.537 490.374 165.872 490.374H238.756C242.091 490.374 244.709 492.999 244.709 496.337C244.709 499.676 242.091 502.3 238.756 502.3Z" fill="#B7C5FF"/>
<path d="M238.756 525.676H165.872C162.537 525.676 159.919 523.052 159.919 519.713C159.919 516.375 162.537 513.75 165.872 513.75H238.756C242.091 513.75 244.709 516.375 244.709 519.713C244.709 523.052 242.091 525.676 238.756 525.676Z" fill="#B7C5FF"/>
<path d="M341.41 428.954H266.741C264.718 428.954 263.169 427.403 263.169 425.375V372.066C263.169 370.038 264.718 368.488 266.741 368.488H341.41C343.435 368.488 344.985 370.038 344.985 372.066V425.375C344.985 427.403 343.435 428.954 341.41 428.954Z" fill="#6583FE"/>
<path d="M329.026 428.954H300.445V393.891C300.445 391.864 301.991 390.313 304.017 390.313H325.452C327.477 390.313 329.026 391.864 329.026 393.891V428.954Z" fill="#9FB0FE"/>
<path d="M324.739 459.487H283.295C279.96 459.487 277.341 456.862 277.341 453.524C277.341 450.182 279.96 447.56 283.295 447.56H324.739C328.074 447.56 330.692 450.182 330.692 453.524C330.692 456.862 328.074 459.487 324.739 459.487Z" fill="#475569"/>
<path d="M342.006 502.3H269.123C265.788 502.3 263.169 499.676 263.169 496.337C263.169 492.999 265.788 490.374 269.123 490.374H342.006C345.341 490.374 347.963 492.999 347.963 496.337C347.963 499.676 345.341 502.3 342.006 502.3Z" fill="#B7C5FF"/>
<path d="M342.006 525.676H269.123C265.788 525.676 263.169 523.052 263.169 519.713C263.169 516.375 265.788 513.75 269.123 513.75H342.006C345.341 513.75 347.963 516.375 347.963 519.713C347.963 523.052 345.341 525.676 342.006 525.676Z" fill="#B7C5FF"/>
<path d="M444.664 428.954H369.994C367.969 428.954 366.42 427.403 366.42 425.375V372.066C366.42 370.038 367.969 368.488 369.994 368.488H444.664C446.686 368.488 448.235 370.038 448.235 372.066V425.375C448.235 427.403 446.686 428.954 444.664 428.954Z" fill="#6583FE"/>
<path d="M432.277 428.954H403.696V393.891C403.696 391.864 405.245 390.313 407.267 390.313H428.706C430.728 390.313 432.277 391.864 432.277 393.891V428.954Z" fill="#9FB0FE"/>
<path d="M427.989 459.487H386.545C383.214 459.487 380.592 456.862 380.592 453.524C380.592 450.182 383.214 447.56 386.545 447.56H427.989C431.324 447.56 433.943 450.182 433.943 453.524C433.943 456.862 431.324 459.487 427.989 459.487Z" fill="#475569"/>
<path d="M445.257 502.3H372.376C369.041 502.3 366.42 499.676 366.42 496.337C366.42 492.999 369.041 490.374 372.376 490.374H445.257C448.592 490.374 451.213 492.999 451.213 496.337C451.213 499.676 448.592 502.3 445.257 502.3Z" fill="#B7C5FF"/>
<path d="M445.257 525.676H372.376C369.041 525.676 366.42 523.052 366.42 519.713C366.42 516.375 369.041 513.75 372.376 513.75H445.257C448.592 513.75 451.213 516.375 451.213 519.713C451.213 523.052 448.592 525.676 445.257 525.676Z" fill="#B7C5FF"/>
<path d="M504.328 94.5448C502.779 94.5448 501.23 93.9479 500.16 92.7541L487.057 79.6368C485.988 78.5629 485.272 77.0121 485.272 75.4613C485.272 73.9135 485.868 72.3627 487.057 71.2888L500.16 58.1685C502.539 55.7838 506.233 55.7838 508.615 58.1685L521.715 71.2888C522.785 72.3627 523.501 73.9135 523.501 75.4613C523.501 77.0121 522.904 78.5629 521.715 79.6368L508.615 92.7541C507.423 93.9479 505.874 94.5448 504.328 94.5448ZM499.564 75.4613L504.208 80.1137L508.852 75.4613L504.208 70.8119L499.564 75.4613Z" fill="#184074" fill-opacity="0.56"/>
<path d="M102.756 588.05C101.207 588.05 99.6581 587.453 98.5854 586.26L85.4858 573.142C84.4162 572.068 83.7001 570.518 83.7001 568.967C83.7001 567.419 84.2963 565.868 85.4858 564.794L98.5854 551.674C100.967 549.289 104.662 549.289 107.041 551.674L120.143 564.794C121.213 565.868 121.929 567.419 121.929 568.967C121.929 570.518 121.333 572.068 120.143 573.142L107.041 586.26C105.851 587.453 104.302 588.05 102.756 588.05ZM97.9922 568.967L102.636 573.619L107.281 568.967L102.636 564.317L97.9922 568.967Z" fill="#184074" fill-opacity="0.91"/>
<path d="M448.235 60.9131C446.686 60.9131 445.14 60.3162 444.067 59.1224L430.968 46.0051C429.895 44.9312 429.182 43.3804 429.182 41.8296C429.182 40.2788 429.775 38.731 430.968 37.6571L444.067 24.5368C446.449 22.1521 450.141 22.1521 452.523 24.5368L465.622 37.6571C468.004 40.0418 468.004 43.7373 465.622 46.125L452.523 59.2423C451.33 60.4362 449.784 60.9131 448.235 60.9131ZM443.591 41.8296L448.235 46.482L452.879 41.8296L448.235 37.1802L443.591 41.8296Z" fill="#184074"/>
<path d="M527.072 589.241C523.737 589.241 521.119 586.62 521.119 583.278C521.119 579.343 517.904 576.124 513.973 576.124C510.638 576.124 508.019 573.499 508.019 570.161C508.019 566.822 510.638 564.197 513.973 564.197C517.904 564.197 521.119 560.979 521.119 557.04C521.119 553.702 523.737 551.08 527.072 551.08C530.407 551.08 533.029 553.702 533.029 557.04C533.029 560.979 536.244 564.197 540.172 564.197C543.507 564.197 546.128 566.822 546.128 570.161C546.128 573.499 543.507 576.124 540.172 576.124C536.244 576.124 533.029 579.343 533.029 583.278C533.029 586.62 530.407 589.241 527.072 589.241Z" fill="#184074" fill-opacity="0.68"/>
<defs>
<linearGradient id="paint0_linear_2005_326" x1="60.504" y1="-14.4163" x2="528.027" y2="641.231" gradientUnits="userSpaceOnUse">
<stop stop-color="#FFDBED"/>
<stop offset="0.0625" stop-color="#FFDBED"/>
<stop offset="0.09375" stop-color="#FFDBED"/>
<stop offset="0.109375" stop-color="#FFDBED"/>
<stop offset="0.125" stop-color="#FEDBED"/>
<stop offset="0.140625" stop-color="#FDDBEE"/>
<stop offset="0.15625" stop-color="#FCDBEE"/>
<stop offset="0.171875" stop-color="#FBDBEE"/>
<stop offset="0.1875" stop-color="#FBDBEF"/>
<stop offset="0.203125" stop-color="#FADBEF"/>
<stop offset="0.21875" stop-color="#F9DBEF"/>
<stop offset="0.234375" stop-color="#F8DCF0"/>
<stop offset="0.25" stop-color="#F7DCF0"/>
<stop offset="0.265625" stop-color="#F6DCF0"/>
<stop offset="0.28125" stop-color="#F5DCF1"/>
<stop offset="0.296875" stop-color="#F5DCF1"/>
<stop offset="0.3125" stop-color="#F4DCF1"/>
<stop offset="0.328125" stop-color="#F3DCF2"/>
<stop offset="0.34375" stop-color="#F2DCF2"/>
<stop offset="0.359375" stop-color="#F1DCF3"/>
<stop offset="0.375" stop-color="#F0DCF3"/>
<stop offset="0.382" stop-color="#EFDCF3"/>
<stop offset="0.390625" stop-color="#EFDCF3"/>
<stop offset="0.40625" stop-color="#EEDCF4"/>
<stop offset="0.421875" stop-color="#EEDCF4"/>
<stop offset="0.4375" stop-color="#EDDCF4"/>
<stop offset="0.453125" stop-color="#ECDCF5"/>
<stop offset="0.46875" stop-color="#EBDCF5"/>
<stop offset="0.484375" stop-color="#EADCF5"/>
<stop offset="0.5" stop-color="#E9DDF6"/>
<stop offset="0.515625" stop-color="#E8DDF6"/>
<stop offset="0.53125" stop-color="#E8DDF6"/>
<stop offset="0.546875" stop-color="#E7DDF7"/>
<stop offset="0.5625" stop-color="#E6DDF7"/>
<stop offset="0.578125" stop-color="#E5DDF7"/>
<stop offset="0.59375" stop-color="#E4DDF8"/>
<stop offset="0.609375" stop-color="#E3DDF8"/>
<stop offset="0.618" stop-color="#E2DDF8"/>
<stop offset="0.625" stop-color="#E2DDF9"/>
<stop offset="0.640625" stop-color="#E1DDF9"/>
<stop offset="0.65625" stop-color="#E1DDF9"/>
<stop offset="0.671875" stop-color="#E0DDF9"/>
<stop offset="0.6875" stop-color="#DFDDFA"/>
<stop offset="0.703125" stop-color="#DEDDFA"/>
<stop offset="0.71875" stop-color="#DDDDFB"/>
<stop offset="0.734375" stop-color="#DCDDFB"/>
<stop offset="0.75" stop-color="#DBDDFB"/>
<stop offset="0.765625" stop-color="#DBDEFC"/>
<stop offset="0.78125" stop-color="#DADEFC"/>
<stop offset="0.796875" stop-color="#D9DEFC"/>
<stop offset="0.8125" stop-color="#D8DEFD"/>
<stop offset="0.828125" stop-color="#D7DEFD"/>
<stop offset="0.84375" stop-color="#D6DEFD"/>
<stop offset="0.859375" stop-color="#D5DEFE"/>
<stop offset="0.875" stop-color="#D4DEFE"/>
<stop offset="0.890625" stop-color="#D4DEFE"/>
<stop offset="0.90625" stop-color="#D3DEFF"/>
<stop offset="0.9375" stop-color="#D2DEFF"/>
<stop offset="1" stop-color="#D2DEFF"/>
</linearGradient>
</defs>
</svg>
